<?xml version="1.0" standalone="no"?>
<!DOCTYPE svg PUBLIC "-//W3C//DTD SVG 20010904//EN" "http://www.w3.org/TR/2001/REC-SVG-20010904/DTD/svg10.dtd">
<svg version="1.0" xmlns="http://www.w3.org/2000/svg"
  width="64.000000pt" height="64.000000pt" viewBox="0 0 64.000000 64.000000"
  preserveAspectRatio="xMidYMid meet">

  <g transform="translate(0.000000,64.000000) scale(0.100000,-0.100000)"
    fill="#994BFF" stroke="none">
    <path
      d="M289 610 c-21 -15 -24 -25 -21 -54 4 -36 5 -36 52 -36 47 0 48 0 52
36 3 30 0 39 -23 55 -32 23 -28 23 -60 -1z" />
    <path d="M132 532 c-9 -6 -11 -21 -6 -50 4 -23 9 -42 13 -41 3 0 16 12 27 27
33 42 8 90 -34 64z" />
    <path
      d="M461 518 c-6 -17 -3 -30 13 -50 11 -15 24 -27 27 -27 4 -1 9 18 13
41 5 29 3 44 -6 50 -22 14 -38 9 -47 -14z" />
    <path
      d="M295 496 c-5 -2 -29 -9 -53 -17 -37 -11 -48 -20 -70 -63 -23 -44 -27
-63 -27 -143 0 -87 1 -93 29 -122 15 -16 50 -39 76 -50 28 -12 51 -30 55 -41
8 -26 22 -26 30 0 4 11 27 29 55 41 26 11 61 34 76 50 27 29 29 35 29 118 0
109 -30 184 -81 206 -33 14 -103 26 -119 21z m94 -47 c49 -17 75 -76 75 -171
1 -68 -2 -79 -24 -103 -70 -75 -170 -75 -240 0 -22 23 -25 36 -25 99 0 90 25
153 70 172 37 16 102 18 144 3z" />
    <path
      d="M282 430 c-44 -10 -44 -11 -22 -48 17 -27 25 -32 60 -32 35 0 43 4
60 32 14 24 16 34 7 39 -23 12 -72 16 -105 9z" />
    <path d="M206 348 c-11 -41 -7 -58 13 -58 27 0 34 27 15 56 -20 29 -20 29 -28
2z" />
    <path d="M407 347 c-20 -30 -13 -57 14 -57 20 0 24 27 10 64 -7 17 -8 16 -24
-7z" />
    <path
      d="M270 294 c-14 -36 3 -54 50 -54 47 0 64 18 50 54 -8 22 -16 26 -50
26 -34 0 -42 -4 -50 -26z" />
    <path d="M205 218 c11 -32 28 -41 43 -21 17 24 10 37 -22 41 -25 3 -27 1 -21
-20z" />
    <path
      d="M385 230 c-10 -16 14 -50 30 -44 8 4 15 10 15 14 0 5 3 15 6 24 5 12
0 16 -19 16 -14 0 -29 -4 -32 -10z" />
    <path
      d="M286 181 c-15 -28 -15 -29 9 -35 14 -4 36 -4 50 0 24 6 24 7 9 35 -8
17 -23 29 -34 29 -11 0 -26 -12 -34 -29z" />
    <path d="M130 105 c0 -44 19 -72 46 -67 20 4 23 8 17 30 -6 25 -39 61 -55 62
-5 0 -8 -11 -8 -25z" />
    <path
      d="M474 112 c-11 -10 -24 -29 -27 -44 -6 -22 -3 -26 17 -30 27 -5 46 23
46 67 0 29 -7 31 -36 7z" />
  </g>
</svg>